<svg width="20" height="18" viewBox="0 0 20 18" fill="none" xmlns="http://www.w3.org/2000/svg">
<g id="Vector">
<path id="Vector_2" d="M16.1141 2.48316L15.0329 4.29822L17.7658 8.87835C17.7857 8.91308 17.7977 8.95563 17.7977 8.99423C17.7977 9.03282 17.7857 9.0753 17.7658 9.1101L15.0329 13.6941L16.1141 15.5091L20 8.99423L16.1141 2.4793V2.48316ZM14.614 4.06265L15.6952 2.24758H13.5328L12.4516 4.06265H14.618H14.614ZM12.4476 4.53379L14.9731 8.76248H17.1355L14.614 4.53379H12.4476ZM14.614 13.4623L17.1355 9.22977H14.9731L12.4476 13.4623H14.614ZM12.4476 13.9335L13.5288 15.7408H15.6912L14.61 13.9335H12.4436H12.4476ZM5.11869 16.1888C5.0748 16.1888 5.0349 16.1772 4.999 16.1579C4.9631 16.1386 4.93117 16.1077 4.91123 16.073L2.17435 11.4889H0.0119692L3.89786 18H11.6656L10.5844 16.1888H5.12268H5.11869ZM11.0034 15.9532L12.0846 17.7645L13.1658 15.9493L12.0846 14.1343L11.0034 15.9493V15.9532ZM11.6656 13.9026H6.62278L5.54159 15.7177H10.5844L11.6656 13.9026ZM6.19987 13.6709L3.67445 9.43834L2.59325 11.2534L5.11869 15.4859L6.19987 13.6709ZM0.0079794 11.0178H2.17036L3.25154 9.20272H1.09315L0.0079794 11.0178ZM4.89925 1.93092C4.91921 1.89616 4.95112 1.86527 4.98703 1.84595C5.02294 1.82665 5.06682 1.81506 5.10672 1.81506H10.5765L11.6577 0H3.88589L0 6.51491H2.16238L4.89128 1.93478L4.89925 1.93092ZM3.25154 8.79728L2.17036 6.98219H0.0079794L1.08917 8.79728H3.25154ZM5.11071 2.51792L2.58927 6.74662L3.67045 8.56166L6.1919 4.33298L5.11071 2.51792ZM10.5805 2.28235H5.52961L6.61081 4.0974H11.6616L10.5805 2.28235ZM12.0846 3.86183L13.1618 2.05063L12.0846 0.235571L11.0034 2.04677L12.0846 3.86183Z" fill="#2E323A"/>
</g>
</svg>
