<svg width="24" height="24" viewBox="0 0 24 24" fill="none" xmlns="http://www.w3.org/2000/svg">
<g id="Discord">
<path id="Vector" d="M18.5903 5.88991C17.3603 5.31991 16.0503 4.89991 14.6703 4.65991C14.5003 4.95991 14.3003 5.36991 14.1703 5.69991C12.7103 5.47991 11.2603 5.47991 9.83031 5.69991C9.69031 5.36991 9.49031 4.95991 9.32031 4.65991C7.94031 4.89991 6.63031 5.31991 5.40031 5.88991C2.92031 9.62991 2.25031 13.2799 2.58031 16.8699C4.23031 18.0999 5.82031 18.8399 7.39031 19.3299C7.78031 18.7999 8.12031 18.2299 8.42031 17.6399C7.85031 17.4299 7.31031 17.1599 6.80031 16.8499C6.94031 16.7499 7.07031 16.6399 7.20031 16.5399C10.3303 17.9999 13.7203 17.9999 16.8103 16.5399C16.9403 16.6499 17.0703 16.7499 17.2103 16.8499C16.7003 17.1599 16.1503 17.4199 15.5903 17.6399C15.8903 18.2299 16.2303 18.7999 16.6203 19.3299C18.1903 18.8399 19.7903 18.0999 21.4303 16.8699C21.8203 12.6999 20.7603 9.08991 18.6103 5.88991H18.5903ZM8.84031 14.6699C7.90031 14.6699 7.13031 13.7999 7.13031 12.7299C7.13031 11.6599 7.88031 10.7899 8.84031 10.7899C9.80031 10.7899 10.5603 11.6599 10.5503 12.7299C10.5503 13.7899 9.80031 14.6699 8.84031 14.6699ZM15.1503 14.6699C14.2103 14.6699 13.4403 13.7999 13.4403 12.7299C13.4403 11.6599 14.1903 10.7899 15.1503 10.7899C16.1103 10.7899 16.8703 11.6599 16.8603 12.7299C16.8603 13.7899 16.1103 14.6699 15.1503 14.6699Z" fill="#2E323A"/>
</g>
</svg>
