<svg width="24" height="24" viewBox="0 0 24 24" fill="none" xmlns="http://www.w3.org/2000/svg">
<path d="M13.5 18C13.5 18.8285 14.1715 19.5 15 19.5C15.8285 19.5 16.5 18.8285 16.5 18C16.5 17.1715 15.8285 16.5 15 16.5C14.1715 16.5 13.5 17.1715 13.5 18Z" fill="#2E323A"/>
<path d="M7.5 18C7.5 18.8285 8.17158 19.5 9 19.5C9.82842 19.5 10.5 18.8285 10.5 18C10.5 17.1715 9.82842 16.5 9 16.5C8.17158 16.5 7.5 17.1715 7.5 18Z" fill="#2E323A"/>
<path d="M13.5 12C13.5 12.8285 14.1715 13.5 15 13.5C15.8285 13.5 16.5 12.8285 16.5 12C16.5 11.1715 15.8285 10.5 15 10.5C14.1715 10.5 13.5 11.1715 13.5 12Z" fill="#2E323A"/>
<path d="M7.5 12C7.5 12.8285 8.17158 13.5 9 13.5C9.82842 13.5 10.5 12.8285 10.5 12C10.5 11.1715 9.82842 10.5 9 10.5C8.17158 10.5 7.5 11.1715 7.5 12Z" fill="#2E323A"/>
<path d="M13.5 6C13.5 6.82842 14.1715 7.5 15 7.5C15.8285 7.5 16.5 6.82842 16.5 6C16.5 5.17158 15.8285 4.5 15 4.5C14.1715 4.5 13.5 5.17158 13.5 6Z" fill="#2E323A"/>
<path d="M7.5 6C7.5 6.82842 8.17158 7.5 9 7.5C9.82842 7.5 10.5 6.82842 10.5 6C10.5 5.17158 9.82842 4.5 9 4.5C8.17158 4.5 7.5 5.17158 7.5 6Z" fill="#2E323A"/>
</svg>
