<svg width="24" height="24" viewBox="0 0 24 24" fill="none" xmlns="http://www.w3.org/2000/svg">
<g id="Github">
<path id="gitbhu" fill-rule="evenodd" clip-rule="evenodd" d="M12 3C16.9707 3 21 7.13094 21 12.2276C21 16.3037 18.4242 19.7616 14.8503 20.9829C14.394 21.0738 14.232 20.7856 14.232 20.5399C14.232 20.2357 14.2428 19.2421 14.2428 18.0073C14.2428 17.1469 13.9548 16.5854 13.6317 16.2992C15.636 16.0706 17.742 15.2902 17.742 11.746C17.742 10.738 17.3928 9.91544 16.815 9.26924C16.9086 9.03614 17.2173 8.09756 16.7268 6.82676C16.7268 6.82676 15.9726 6.5795 14.2545 7.7729C13.5354 7.5686 12.765 7.46581 12 7.46221C11.235 7.46581 10.4655 7.5686 9.7473 7.7729C8.0274 6.5795 7.2714 6.82676 7.2714 6.82676C6.7827 8.09756 7.0914 9.03614 7.1841 9.26924C6.609 9.91544 6.2571 10.738 6.2571 11.746C6.2571 15.2812 8.3586 16.0735 10.3575 16.3066C10.1001 16.537 9.867 16.9435 9.786 17.5402C9.273 17.776 7.9698 18.1841 7.167 16.7738C7.167 16.7738 6.6909 15.8872 5.7873 15.8224C5.7873 15.8224 4.9098 15.8107 5.7261 16.3831C5.7261 16.3831 6.3156 16.6666 6.7251 17.7331C6.7251 17.7331 7.2534 19.3801 9.7572 18.8221C9.7617 19.5934 9.7698 20.3203 9.7698 20.5399C9.7698 20.7838 9.6042 21.0692 9.1551 20.9837C5.5785 19.7642 3 16.3046 3 12.2276C3 7.13094 7.0302 3 12 3Z" fill="#2E323A"/>
</g>
</svg>
