<svg width="24" height="24" viewBox="0 0 24 24" fill="none" xmlns="http://www.w3.org/2000/svg">
<g id="Youtube">
<path id="Youtube_2" fill-rule="evenodd" clip-rule="evenodd" d="M9.98844 14.5861V8.9743C11.9806 9.91173 13.5236 10.8173 15.3485 11.7936C13.8433 12.6283 11.9806 13.5649 9.98844 14.5861ZM21.091 6.18328C20.7474 5.73052 20.1617 5.37809 19.5381 5.26141C17.7053 4.91336 6.27099 4.91237 4.43915 5.26141C3.93911 5.35515 3.49384 5.58173 3.11133 5.93377C1.49964 7.42967 2.00467 15.4517 2.39315 16.7512C2.55651 17.3136 2.76769 17.7193 3.03365 17.9855C3.37631 18.3376 3.84547 18.58 4.38436 18.6887C5.89345 19.0008 13.668 19.1753 19.5062 18.7355C20.0441 18.6418 20.5202 18.3916 20.8958 18.0246C22.3859 16.5347 22.2843 8.06213 21.091 6.18328Z" fill="#2E323A"/>
</g>
</svg>
